<svg xmlns="http://www.w3.org/2000/svg" viewBox="0 0 32 32">
    <style>
        /* Default color: Tailwind's Indigo-600 */
        path { fill: #4f46e5; }

        /* Auto-switches to White if the user's browser/OS is in Dark Mode */
        @media (prefers-color-scheme: dark) {
        path { fill: #ffffff; }
        }
    </style>
    <path d="M28 14.667v10.666C28 27.253 26.253 29 24 29H8c-2.253 0-4-1.747-4-4.667V14.667c0-2.92 1.747-4.667 4-4.667h16c2.253 0 4 1.747 4 4.667zM16 14c0-.733-.6-.733-1.333-.733S13.333 13.267 13.333 14v6h2.667v-6zM18.667 14c0-.733-.6-.733-1.333-.733S16 13.267 16 14v6h2.667v-6zm-8 10.667h10.666c1.107 0 2-.893 2-2V18.667h-14.666V22.667c0 1.107.893 2 2 2z" />
</svg>
